<svg xmlns="http://www.w3.org/2000/svg" version="1.1" xmlns:xlink="http://www.w3.org/1999/xlink" width="2048" height="1024" preserveAspectRatio="none" viewBox="0 0 2048 1024"><g mask="url(&quot;#SvgjsMask1154&quot;)" fill="none"><rect width="2048" height="1024" x="0" y="0" fill="#1e3266"></rect><path d="M2150.4000000000005 1024L0 1024 L0 574.73Q44.41 516.74, 102.4 561.15Q206.81 494.9, 273.06666666666666 599.31Q295.44 451.02, 443.73333333333335 473.39Q501.11 428.37, 546.1333333333333 485.74Q612.28 381.22, 716.8 447.37Q830.47 390.38, 887.4666666666666 504.05Q1002.18 448.1, 1058.1333333333332 562.81Q1118.8 521.07, 1160.5333333333333 581.74Q1195.56 514.37, 1262.9333333333334 549.4Q1385.39 501.19, 1433.6000000000001 623.65Q1440.41 528.05, 1536.0000000000002 534.86Q1573.68 401.88, 1706.666666666667 439.56Q1786.17 348.4, 1877.3333333333337 427.9Q1979.83 427.99, 1979.7333333333338 530.49Q2084.56 464.65, 2150.4000000000005 569.48z" fill="#182f5d"></path><path d="M2048.0000000000005 1024L0 1024 L0 591.85Q67.52 556.97, 102.4 624.5Q263.77 615.2, 273.06666666666666 776.57Q288.3 689.4, 375.4666666666667 704.63Q392.38 619.15, 477.8666666666667 636.06Q579.96 567.48, 648.5333333333333 669.57Q745.16 595.53, 819.1999999999999 692.15Q834.47 605.02, 921.5999999999999 620.29Q964.53 560.82, 1023.9999999999999 603.75Q1069.2 546.55, 1126.3999999999999 591.75Q1264.55 559.23, 1297.0666666666666 697.38Q1361.57 659.48, 1399.4666666666667 723.99Q1425.9 579.76, 1570.1333333333334 606.19Q1627.29 560.94, 1672.5333333333335 618.1Q1790.16 565.06, 1843.2000000000003 682.69Q1919.43 656.51, 1945.6000000000004 732.74Q1949.66 634.39, 2048.0000000000005 638.45z" fill="#25467d"></path><path d="M2082.1333333333337 1024L0 1024 L0 827.21Q37.59 694.14, 170.66666666666666 731.73Q233.03 691.69, 273.06666666666666 754.06Q369.2 747.79, 375.4666666666667 843.92Q443.6 809.65, 477.8666666666667 877.78Q503.77 801.28, 580.2666666666667 827.18Q637.75 713.99, 750.9333333333333 771.47Q808.86 727, 853.3333333333333 784.92Q921.57 750.75, 955.7333333333332 818.99Q1054.32 815.18, 1058.1333333333332 913.76Q1098.51 851.73, 1160.5333333333333 892.11Q1184.27 813.45, 1262.9333333333334 837.19Q1332.09 803.95, 1365.3333333333335 873.11Q1420.44 757.55, 1536.0000000000002 812.65Q1594.22 700.21, 1706.666666666667 758.43Q1752.03 701.39, 1809.066666666667 746.76Q1888.88 724.17, 1911.4666666666672 803.99Q1986.82 708.68, 2082.1333333333337 784.03z" fill="#356cb1"></path><path d="M2116.266666666667 1024L0 1024 L0 947.64Q17.39 862.63, 102.4 880.01Q208.87 815.81, 273.06666666666666 922.28Q349.93 896.74, 375.4666666666667 973.6Q470.03 965.76, 477.8666666666667 1060.33Q557.36 969.15, 648.5333333333333 1048.64Q678.03 975.74, 750.9333333333333 1005.24Q803.1 886.74, 921.5999999999999 938.9Q1000.22 915.12, 1023.9999999999999 993.73Q1123.66 922.72, 1194.6666666666665 1022.38Q1285.2 942.25, 1365.3333333333333 1032.79Q1400.51 965.57, 1467.7333333333333 1000.75Q1490.69 921.3, 1570.1333333333334 944.26Q1629.87 901.6, 1672.5333333333335 961.33Q1732.81 850.94, 1843.2000000000003 911.21Q1880.14 845.74, 1945.6000000000004 882.68Q2083.37 849.79, 2116.266666666667 987.56z" fill="white"></path></g><defs><mask id="SvgjsMask1154"><rect width="2048" height="1024" fill="#ffffff"></rect></mask></defs></svg>